DataType=double
version=3
OpenSimVersion=4.5.2-2025-04-07-2c9fc5bc9
endheader
time	thorax_tilt	thorax_list	thorax_rotation	thorax_tx	thorax_ty	thorax_tz	neck_flexion	neck_bending	neck_rotation	sternoclavicular_r1	sternoclavicular_r2	sternoclavicular_r3	Acromioclavicular_r1	Acromioclavicular_r2	Acromioclavicular_r3	shoulder_plane	shoulder_ele	shoulder_rotation	elbow_flexion	pro_sup	hand_r_Add	hand_r_Flex	sternoclavicular_left_r1	sternoclavicular_left_r2	sternoclavicular_left_r3	Acromioclavicular_left_r1	Acromioclavicular_left_r2	Acromioclavicular_left_r3	shoulder_left_plane	shoulder_left_ele	shoulder_left_rotation	elbow_left_flexion	pro_sup_left	hand_left_Flex	hand_left_Add
3.234	-3.270249556733364	-0.4314544899885388	0.6591147833934194	0.2895708966260665	-0.1317337843345345	0.9992705220749869	0.01092023430442631	-0.1900828480680389	0.2585666361493394	0.002339969915709873	0.3674377060276319	0.1197965110122704	-4.018891445510175e-15	-6.78242075274528e-15	7.913128077205759e-16	-3.046908575244104	-0.3039732452156241	3.142604074588152	1.191121486538801	1.315719199658685	-0.1941846479099386	0.0789634875201079	-0.1755238340597366	-0.3478933368113795	-0.01471944825808623	-1.794054486729722e-18	1.745642132806697e-18	-1.637165504726738e-16	-0.3913903940996584	0.9779158313124607	1.03028848664392	2.394436657690516	-0.2252476847574662	-0.5188659648255497	0.04237580055751067
3.267	-3.267808605164387	-0.4304220587580593	0.6598865346358883	0.2900020047157379	-0.1319155363142268	0.9996826835661916	0.001506616257750873	-0.1912951773560219	0.2559287860358209	0.00280545215277004	0.3686575402550274	0.1220975347745907	-4.166285777306154e-15	-6.808620093426386e-15	7.535712605376457e-16	-3.043346582826238	-0.3035973322549204	3.142451173018637	1.189559958433847	1.315464987965602	-0.196426221480675	0.08174210966162013	-0.1757404699810831	-0.3477727451629746	-0.01593662660347973	-2.655330942299943e-19	2.163469774596023e-18	-1.702911874976319e-16	-0.3928818536062601	0.9725387278980308	1.035565329480646	2.387775388804977	-0.2236898760689834	-0.5203552022910656	0.04168992909822049
3.3	-3.264971612356737	-0.4293731539155191	0.6595067806785356	0.290510962354372	-0.1321178460183495	1.000029052728554	-0.01125997083094438	-0.1936827932220457	0.2516676461157943	0.001550154763602211	0.3694174515551477	0.1243817111858189	-3.862869699316616e-15	-6.723601981991232e-15	7.923145027203348e-16	-3.038042676565422	-0.3031841357365747	3.142253498239612	1.186241237861153	1.314612444155218	-0.1996531637670793	0.07993450902200341	-0.1759974179926981	-0.3480056744512254	-0.01724379896266024	4.222568964558778e-18	1.833660444908858e-18	-1.56825761228968e-16	-0.3950805872779771	0.9657734374622399	1.040315916555894	2.381123807949174	-0.2239203552534107	-0.5185777045156791	0.04099827644098096
3.333	-3.261562295763277	-0.4279242894005156	0.6584752350601378	0.290974578694679	-0.132197527125369	1.00029704959892	-0.02384406082095435	-0.1974551075807268	0.2456265606747671	-4.586197109757704e-05	0.3703790029955213	0.1267057646263449	-2.859218916089415e-15	-7.439351028241464e-15	1.486351414718286e-15	-3.031444730470905	-0.3028406560432747	3.142042128736937	1.18156836061532	1.311786553027372	-0.2049941840474638	0.07358530871298996	-0.1750705016256859	-0.3482887369653902	-0.01857127976140953	3.43628702039281e-18	-1.732955501385567e-18	-1.612035772980085e-16	-0.4003423873444747	0.9569935632337694	1.04401295604937	2.376226608327561	-0.2248081562410724	-0.5137664565443315	0.04150031857083126
3.366	-3.257984308694549	-0.4261267750553637	0.6581615957648298	0.2912626045247697	-0.1321406479280423	1.000567041022121	-0.03366508561405534	-0.202163153219304	0.2380260203839146	-0.0009907287898128932	0.3721990559175145	0.1291668650854134	-1.557900220075431e-15	-8.679041448789183e-15	2.959274591578565e-15	-3.02421536206449	-0.3026219769348789	3.141827827492119	1.177228885070888	1.307106642931336	-0.2123191284946134	0.06548735354568383	-0.172998698484243	-0.348182459802695	-0.01978840676467717	1.055520345461525e-18	-4.476878664543845e-19	-1.736388691417414e-16	-0.4094167011026252	0.9465114742214614	1.047675660428723	2.372900443221893	-0.2250269175177714	-0.5080705652374483	0.04474330610863659
3.399	-3.254983649467203	-0.4243439605418625	0.6597100633261762	0.2913024256047145	-0.1319990269696628	1.000979896495325	-0.04015194525729982	-0.2069260545317776	0.2292603139995669	-0.001317302563411143	0.3747797762570655	0.1318112443323269	-2.675185089795571e-15	-7.43861795015454e-15	1.953679259614579e-15	-3.017378288093043	-0.302515058566858	3.141609763352611	1.174799944017429	1.302291693705406	-0.2199846307661823	0.0590312967064493	-0.1709259558831599	-0.3476344916745649	-0.02081650870089262	4.723694248155333e-18	-1.558807224711975e-18	-1.713823823185404e-16	-0.4210351884341845	0.9353457528062212	1.052926905532944	2.36931551547876	-0.2236924409099389	-0.5042008192562248	0.05139981778215821
3.432	-3.252953709726313	-0.4232212124068454	0.6632152896859318	0.2911350129645868	-0.1318134003291907	1.001594789435904	-0.04436316123740008	-0.2108946221080769	0.2195213559247894	-0.001846890224120773	0.3772046471662961	0.1346213458235375	-3.06965036648768e-15	-7.435995893379893e-15	1.819962655038303e-15	-3.011991284556005	-0.3024589250227587	3.141392117492085	1.174725840712988	1.299645295601199	-0.2252131390116133	0.05567058560842268	-0.1698874942590689	-0.3469152445269096	-0.02164658260642328	2.949616213921248e-18	4.878043512799746e-18	-1.804396755007064e-16	-0.4334861339444103	0.9245288082466443	1.060827039618117	2.3635039944673	-0.2207590971121007	-0.5037851904649475	0.06032030072673905
3.465	-3.251623143082481	-0.4233696920995664	0.6678780030876809	0.2908817065187359	-0.131613908890375	1.002343540438504	-0.04791578663102152	-0.2136233009052302	0.2085418904540932	-0.003581312976399297	0.3785465296137393	0.13757203434506	-4.09559054146508e-15	-6.691780013172922e-15	9.861774309014541e-16	-3.008331979103718	-0.3023851363111721	3.141189848639867	1.176241937746197	1.300687214630928	-0.2253216794816324	0.05462489737491623	-0.1697316924694177	-0.3462302974313581	-0.02227067833857438	1.051647453942372e-18	6.579641909793006e-18	-1.782584727062771e-16	-0.446177285822189	0.9145595061070935	1.071470624152163	2.354334408772631	-0.2168560253039333	-0.5066937195297896	0.0693212403551887
3.498	-3.250339599707779	-0.424804355706665	0.6727552208775925	0.2906578206014837	-0.1313778923953863	1.00314287128342	-0.05150659100491603	-0.2150776910833875	0.1956592613148455	-0.007092806683149488	0.3785724732554275	0.1406509944366941	-4.394289407897123e-15	-5.79619890569991e-15	1.164053164815529e-17	-3.005716283421271	-0.3022597481484046	3.141019590945431	1.178071825932566	1.305021271281055	-0.2198495536586734	0.05402946796523307	-0.1685552941019713	-0.3457619605125729	-0.02266777461490652	4.978481281892333e-21	4.11753029396235e-18	-7.520244356507242e-16	-0.4598278742415486	0.9052298899157299	1.083752749127285	2.341734652461601	-0.2125513068437035	-0.5111114857048298	0.07714970637349505
3.531	-3.248655943923368	-0.426900901162598	0.6777018398714216	0.290528801083968	-0.1309927700266347	1.003997062908862	-0.05396141588153348	-0.2154565629098297	0.1802142456504278	-0.01236218355755165	0.3778433350291297	0.1438229566318676	-5.013513838038221e-15	-5.700040291140675e-15	-5.681215304714175e-16	-3.003377277103794	-0.3021125161617988	3.14088151025507	1.179346185500116	1.31011908416323	-0.2118976864452494	0.0523944758566464	-0.1640425079198936	-0.3456143327710304	-0.02287758474630245	4.789473609619127e-18	4.211888106455377e-18	-7.883627564200162e-16	-0.4754148629636127	0.8957702903362068	1.096092787207832	2.326129350996045	-0.2080658114593586	-0.5146099278866451	0.08410484649008498
3.564	-3.246642231582154	-0.4290507290603693	0.6836390353691062	0.2905115913407911	-0.1303098003124316	1.004946325110342	-0.05287600210430361	-0.2152738104090339	0.1619356919092316	-0.01914224701662488	0.3773832078220028	0.1470331365572818	-5.841558775678185e-15	-4.990113317244078e-15	-1.198340497785967e-15	-3.001117400696379	-0.3019912485425529	3.140757556333002	1.180068235608365	1.312360804011323	-0.206774100565078	0.04977214363083489	-0.1556899801187018	-0.3455447547640308	-0.02300614150263221	-9.15534192224986e-19	5.395188768056118e-19	-7.429348157117649e-16	-0.4929996057140216	0.8852887392420885	1.10807625935414	2.307835922720256	-0.2038416942346918	-0.5159566369829064	0.09098377613832671
3.597	-3.244630065775266	-0.4314002685565233	0.6914434708967756	0.2906087105857266	-0.1292118743055633	1.00591369814503	-0.04647760334404699	-0.2154749619091681	0.1417322203757569	-0.02729033347619998	0.3779788634737288	0.1502505880879086	-5.896871588595396e-15	-4.968332922944819e-15	-1.055632949570634e-15	-2.998941422519501	-0.301886259538592	3.14064099957036	1.180777775915062	1.308606720827816	-0.2087050153154645	0.04752324797455331	-0.1445570938077025	-0.3451498911909378	-0.02313103683188093	5.790078661886998e-19	2.537039873515091e-19	-7.149357683218541e-16	-0.5114999007177645	0.8734624812588667	1.120505001964311	2.287355014076873	-0.2006306012067104	-0.5155346575179162	0.09821594221852216
3.63	-3.242931746376212	-0.434695731670896	0.7008813409674129	0.2908453325990613	-0.1276911227684686	1.006696715693586	-0.03487772687723251	-0.2167477390210843	0.1213988486311714	-0.03675925749511522	0.3797328126404053	0.1535128085323475	-6.001544495500585e-15	-4.65001487317858e-15	-1.054476434804847e-15	-2.996331750399661	-0.3017548898265978	3.140538241951806	1.181907577323685	1.297579486628566	-0.2181472632718242	0.04613844425894596	-0.1316203639221386	-0.3440545378341138	-0.02318089034778181	1.282469611400586e-18	3.596843229286711e-18	-7.158856607563253e-16	-0.529691203034233	0.8608544203679107	1.134325857071011	2.265207463898587	-0.1988530225547829	-0.5139561035957024	0.1058653221222981
3.663	-3.241610551123876	-0.4392790648019192	0.7110607525103957	0.2912160959009516	-0.1258983105784593	1.007190981739023	-0.01956623959676592	-0.2185318045584364	0.1018391824674979	-0.04689490998573317	0.3823421982739417	0.1569354025436715	-5.321044455919065e-15	-5.511688153503779e-15	1.031287214343822e-16	-2.992506423071157	-0.301602047343647	3.140447024234142	1.183574489565744	1.281199664404075	-0.231247902995362	0.04430924627936279	-0.1177193970374765	-0.3416493761694788	-0.02287510119179394	-2.504945065392004e-18	2.231453422141296e-18	-7.147597785978187e-16	-0.5472729588011628	0.84841559716867	1.150485643181579	2.241088020097331	-0.1986613300346629	-0.5112595125350545	0.1137341094913223
